<?xml version="1.0" standalone="no"?>
<!DOCTYPE svg PUBLIC "-//W3C//DTD SVG 20010904//EN"
 "http://www.w3.org/TR/2001/REC-SVG-20010904/DTD/svg10.dtd">
<svg version="1.0" xmlns="http://www.w3.org/2000/svg"
 width="800.000000pt" height="800.000000pt" viewBox="0 0 800.000000 800.000000"
 preserveAspectRatio="xMidYMid meet">
<metadata>
Created by potrace 1.11, written by Peter Selinger 2001-2013
</metadata>
<g transform="translate(0.000000,800.000000) scale(0.100000,-0.100000)"
fill="#000000" stroke="none">
<path d="M2205 6599 c-137 -4 -529 -12 -870 -18 -341 -7 -658 -16 -704 -22
-136 -16 -197 -62 -225 -168 -17 -66 -3 -118 87 -329 l65 -152 6 -418 c4 -229
9 -451 11 -492 2 -41 9 -408 15 -815 13 -854 14 -859 85 -931 30 -29 55 -45
82 -50 57 -10 74 -21 68 -47 -2 -12 -18 -96 -35 -187 -17 -91 -35 -185 -40
-210 -5 -25 -19 -97 -30 -160 -12 -63 -30 -160 -41 -215 -11 -55 -38 -197 -60
-315 -22 -118 -54 -287 -70 -375 -37 -195 -35 -179 -19 -244 17 -73 69 -124
147 -147 l58 -17 810 162 c455 91 822 160 835 157 14 -3 113 -13 220 -21 281
-21 792 -63 1120 -90 173 -15 354 -30 725 -60 105 -8 246 -19 315 -25 206 -17
473 -39 675 -56 105 -8 271 -22 370 -30 99 -8 263 -21 365 -29 102 -8 268 -22
370 -30 102 -9 271 -22 375 -30 105 -8 207 -18 228 -21 61 -10 153 15 198 54
73 63 88 128 70 302 -6 58 -22 220 -36 360 -13 140 -29 296 -35 345 -40 365
-40 375 -16 610 23 228 43 427 60 600 60 598 83 834 96 950 5 50 19 185 30
300 11 116 25 251 30 300 5 50 14 137 20 195 9 98 18 192 55 558 8 81 21 217
30 302 8 85 17 173 21 196 14 97 -56 217 -143 245 -55 17 -302 22 -3133 60
-1450 20 -1421 21 -1482 -36 -15 -14 -30 -25 -33 -25 -3 0 -23 13 -43 29 -69
54 -102 56 -627 40z m634 -379 c74 -99 136 -179 137 -177 3 3 20 95 43 239 9
59 20 110 23 113 3 4 280 2 615 -4 334 -6 867 -13 1183 -16 316 -3 675 -8 797
-11 123 -2 579 -9 1015 -15 435 -5 795 -12 800 -15 5 -3 6 -20 3 -37 -3 -18
-12 -106 -20 -197 -8 -91 -26 -273 -40 -405 -14 -132 -29 -294 -35 -360 -6
-66 -16 -163 -21 -215 -16 -138 -26 -235 -44 -415 -9 -88 -22 -223 -30 -300
-8 -77 -19 -192 -24 -255 -6 -63 -15 -155 -21 -205 -12 -108 -34 -320 -55
-540 -39 -395 -47 -478 -61 -603 -8 -73 -12 -151 -10 -175 11 -92 52 -502 66
-652 9 -97 26 -272 35 -345 1 -14 6 -67 10 -119 l8 -94 -49 6 c-27 4 -139 14
-249 22 -110 8 -281 22 -380 30 -329 28 -539 45 -670 55 -71 5 -150 12 -175
15 -25 3 -103 10 -175 15 -71 5 -213 17 -315 25 -102 9 -268 22 -370 30 -102
8 -266 22 -365 30 -99 8 -266 21 -371 30 -105 8 -213 17 -240 20 -27 2 -141
12 -254 20 -113 9 -257 20 -320 26 -63 5 -176 14 -250 19 -74 6 -151 12 -170
15 -36 5 -185 18 -398 36 -131 10 -113 13 -422 -53 -41 -8 -147 -29 -225 -44
-16 -3 -84 -17 -150 -30 -66 -14 -187 -38 -270 -54 -155 -30 -539 -108 -565
-114 -8 -2 -34 -7 -57 -11 -51 -8 -51 -6 -29 108 25 124 44 228 66 352 11 66
25 138 30 161 5 22 36 186 70 365 33 178 65 344 70 369 5 25 19 97 30 160 11
63 25 135 30 160 31 153 62 331 57 336 -3 3 -63 -22 -134 -56 -70 -33 -130
-61 -133 -61 -12 1 -19 199 -29 856 -6 385 -13 790 -16 900 -3 110 -8 335 -11
500 -7 322 -5 311 -68 449 -41 91 -96 224 -96 234 0 17 162 23 1270 43 338 6
617 13 619 15 2 2 50 4 105 4 l102 0 133 -180z"/>
<path d="M2305 6289 c-137 -4 -518 -12 -845 -19 -327 -7 -606 -14 -620 -15
-14 -2 -39 -4 -57 -4 l-32 -1 56 -127 57 -128 7 -150 c4 -82 12 -458 18 -835
6 -377 13 -775 16 -885 3 -110 6 -281 6 -380 1 -99 3 -183 6 -187 2 -4 30 5
61 21 98 49 126 55 166 36 31 -15 51 -45 57 -85 3 -19 -2 -53 -57 -340 -24
-129 -58 -307 -75 -395 -16 -88 -34 -180 -39 -205 -5 -25 -19 -97 -30 -160
-11 -63 -25 -135 -30 -160 -5 -25 -23 -121 -40 -215 -18 -93 -42 -226 -56
-294 -13 -68 -22 -126 -20 -129 7 -6 231 36 761 144 121 25 235 47 253 50 18
2 134 25 259 50 147 29 239 43 262 39 20 -3 119 -12 221 -20 375 -29 710 -55
890 -70 484 -40 667 -56 690 -60 14 -2 75 -7 135 -10 61 -3 121 -8 135 -10 14
-3 120 -12 235 -20 233 -17 560 -42 645 -50 30 -3 143 -12 250 -20 107 -9 247
-20 310 -26 63 -5 198 -16 300 -24 102 -8 266 -21 365 -29 99 -8 241 -20 315
-25 74 -6 155 -13 179 -17 l44 -6 -7 59 c-3 32 -13 127 -21 211 -24 242 -44
445 -62 612 -25 241 -23 303 22 715 10 89 27 258 40 400 8 83 23 238 34 345
11 107 23 220 26 250 2 30 9 98 15 150 5 52 19 187 30 300 12 113 27 270 36
350 8 80 17 170 19 200 3 30 10 100 16 155 5 55 16 168 24 250 8 83 22 218 30
300 18 171 35 360 35 391 l0 22 -582 6 c-321 4 -664 9 -763 12 -99 3 -531 9
-960 14 -1132 13 -1559 19 -1746 26 l-166 6 -23 -133 c-12 -74 -28 -149 -36
-166 l-13 -33 -73 0 -73 1 -124 164 -123 165 -52 -2 c-28 0 -163 -4 -301 -9z
m3286 -618 c303 -79 512 -317 595 -679 21 -94 30 -451 15 -577 -31 -242 -125
-433 -307 -624 l-84 -89 44 -79 c99 -179 196 -440 237 -635 30 -144 29 -463
-1 -561 -42 -136 -114 -191 -250 -192 -64 0 -82 4 -122 27 -121 72 -245 294
-381 683 -67 193 -118 316 -134 322 -13 5 -259 -90 -277 -107 -5 -5 -12 -71
-17 -147 -24 -389 -92 -639 -204 -742 -71 -66 -173 -78 -263 -32 -100 51 -175
210 -213 447 -16 98 -23 2220 -8 2384 15 163 30 205 99 272 129 126 532 280
910 347 83 15 272 6 361 -18z m-2422 -36 c209 -57 360 -175 447 -350 56 -114
67 -187 61 -430 -4 -185 -8 -222 -30 -309 -44 -164 -115 -292 -250 -450 -45
-52 -49 -59 -33 -68 50 -28 125 -101 165 -160 102 -150 125 -257 118 -556 -3
-161 -9 -232 -21 -276 -112 -389 -498 -648 -1043 -698 -199 -18 -471 14 -576
68 -68 36 -104 237 -128 719 -14 281 -6 1568 11 1815 12 170 35 327 55 377 41
99 443 276 760 334 142 26 334 20 464 -16z"/>
<path d="M5180 4690 c-65 -8 -113 -23 -192 -57 l-58 -26 0 -223 0 -224 68 26
c186 70 331 182 407 316 33 58 32 90 -5 132 -45 50 -119 69 -220 56z"/>
<path d="M2729 4699 c-31 -11 -73 -34 -93 -52 -34 -29 -38 -39 -52 -119 -8
-48 -14 -120 -12 -160 l3 -73 37 2 c57 4 116 39 194 117 75 75 154 196 157
241 5 61 -119 84 -234 44z"/>
<path d="M2705 3495 c-72 -30 -106 -53 -122 -86 -14 -27 -17 -127 -4 -148 13
-20 80 -5 163 36 75 38 198 148 198 177 0 10 -15 23 -35 32 -52 21 -131 17
-200 -11z"/>
</g>
</svg>
